<?xml version="1.0" encoding="utf-8"?>
<!-- Generator: Adobe Illustrator 26.0.1, SVG Export Plug-In . SVG Version: 6.00 Build 0)  -->
<svg version="1.1" id="Layer_1" xmlns="http://www.w3.org/2000/svg" xmlns:xlink="http://www.w3.org/1999/xlink" x="0px" y="0px"
	 viewBox="0 0 1000 350" style="enable-background:new 0 0 1000 350;" xml:space="preserve">
<style type="text/css">
	.st0{fill:transparent;}
	.st1{fill:#FFFFFF;}
	.st2{font-family:'REZ';}
	.st3{font-size:142.4487px;}
	.st4{fill:#1FB5FF;}
	.st5{fill:#037EFF;}
</style>
<rect x="2" class="st0" width="1000" height="1000"/>
<g>
	<g>
		<text transform="matrix(1 0 0 1 279.2072 621.7755)" style="font-family: 'REZ', Roboto, sans-serif;" class="st1 st2 st3">SharkFin</text>
	</g>
	<path class="st4" d="M420.2,402.1c-0.1-6.1-1-15.6-4.8-25.7c58.1,1.2,118,39.5,118,39.5s-51.7-46.6-127.2-46.6
		C406.1,369.3,417.7,384.7,420.2,402.1z"/>
	<path class="st5" d="M535.4,395.1c-45.6-40.4-103.1-57.3-187.9-45c41.4,26.3,67.6,82.2,43.6,114.1c39.5-8.1,77.3-12.2,112.5-12.2
		c32.4,0,63.2,3.4,93.1,10.3C580,443.5,562.1,418.7,535.4,395.1z M419.9,409.2c-7.4-18-20-35.6-35.6-49.7
		c58.3-0.2,110,12.4,149,56.4c0,0,0,0,0,0c-1.8-1.2-60.7-38.3-118-39.5c0.4,1,0.7,2.1,1.1,3.1c0.1,0.3,0.2,0.7,0.3,1
		c0.1,0.3,0.2,0.7,0.3,1c0.1,0.3,0.2,0.7,0.3,1c0.4,1.5,0.8,2.9,1.1,4.3c0.1,0.5,0.2,0.9,0.3,1.4c0.1,0.3,0.1,0.6,0.2,1
		c0.1,0.6,0.2,1.1,0.3,1.7c0.1,0.5,0.2,1.1,0.2,1.6c0.1,0.6,0.2,1.1,0.2,1.6c0.1,0.5,0.1,1,0.2,1.4c0.2,1.4,0.2,2.7,0.3,3.9
		c0,0.2,0,0.3,0,0.4c0,0.1,0,0.2,0,0.3c0,0.3,0,0.6,0,0.8c0,0.3,0,0.6,0,0.9v0.2c0,0,0,0,0,0C420.2,406.5,419.9,409.2,419.9,409.2z
		 M431.5,392.5c3.1,10.4,3.4,19.9,3.1,26c-1.4-17.6-11.9-33.7-11.9-33.7c74.2,4.8,122.4,53.2,123.9,54.7
		C544.9,438.2,488.5,397.4,431.5,392.5z"/>
	<path class="st4" d="M439.6,471.8c-33.8,7.3-68.7,13.8-102.8,8c47.4,39.8,92.4,6.7,164.4-7.8c71.9-14.5,140.1,12.4,140.1,12.4
		C587.7,461.9,524.2,453.6,439.6,471.8z"/>
	<path class="st5" d="M501.2,472c-71.9,14.5-116.9,47.6-164.4,7.8c9.8,12.4,19.2,22.7,35.2,29.6c19.2,8.2,37.2,5.7,61.4-1.3
		c20.1-5.8,42.1-14.5,62.3-19.8c47.2-12.5,97.5-17,145.5-3.9C641.3,484.4,573.2,457.5,501.2,472z"/>
	<path class="st5" d="M635.6,490.4c-28.2-9.8-58.2-7.2-86.3,0c-20.1,5.2-39.1,13.9-58.8,20.2c-19.7,6.4-41,10.4-61.2,5.8
		c17.9,12.1,39.3,18,60.8,15.9c25.9-2.6,49.3-15.7,72.7-26.9S610,485.8,635.6,490.4z"/>
	<path class="st4" d="M560.2,497.2c44.8-17.3,75.4-6.7,75.4-6.7c-28.2-9.8-58.2-7.2-86.3,0c-20.1,5.2-39.1,13.9-58.8,20.2
		c-19.7,6.4-41,10.4-61.2,5.8C480.9,537.2,515.4,514.4,560.2,497.2z"/>
</g>
</svg>
